<svg class="jss185 FacetMenu__FilterIcon-sc-1hfcnr3-3 bNWgm" focusable="false" viewBox="0 0 24 24" aria-hidden="true" data-qa="filter-svg"><g id="filters-22x20-blue"><path d="M16,14a3,3,0,0,0-2.82,2H0v2H13.18a3,3,0,0,0,5.64,0H22V16H18.82A3,3,0,0,0,16,14Zm0,5a2,2,0,1,1,2-2A2,2,0,0,1,16,19Z" fill="#00aed9"></path><path d="M6,7A3,3,0,0,0,3.18,9H0v2H3.18a3,3,0,0,0,5.64,0H22V9H8.82A3,3,0,0,0,6,7Zm0,5a2,2,0,1,1,2-2A2,2,0,0,1,6,12Z" fill="#00aed9"></path><path d="M18.82,2a3,3,0,0,0-5.64,0H0V4H13.18a3,3,0,0,0,5.64,0H22V2ZM16,5a2,2,0,1,1,2-2A2,2,0,0,1,16,5Z" fill="#00aed9"></path></g></svg>